<svg height="511pt" viewBox="0 -113 511.9994 511" width="511pt" xmlns="http://www.w3.org/2000/svg"><path d="m382.832031 90.007812c23.664063 6.398438 51.84375 9.921876 85.21875 8.445313 15.941407-.703125 30.292969 9.761719 34.148438 25.242187 13.078125 52.4375-30.984375 153.980469-92.421875 153.980469h-70.457032c-19.253906 0-38.023437-6.167969-53.433593-17.726562-18.226563-13.660157-42.804688-29.941407-57.527344-30.003907-19.859375-.078124-40.035156 11.128907-46.273437 30.746094-3.195313 10.023438-12.292969 16.984375-22.816407 16.984375h-71.402343c-18.359376 0-35.476563-9.394531-45.257813-24.929687-41.109375-65.304688-36.710937-132.648438-32.53125-160.117188 1.042969-6.871094 7.664063-11.449218 14.472656-10.035156 121.941407 25.421875 199.621094-45.457031 220.710938-67.976562 3.0625-3.261719 7.050781-5.582032 11.460937-6.324219 8.046875-1.378907 15.910156 2.230469 20.199219 8.886719 3.253906 5.0625 8.144531 11.820312 14.984375 19.304687l19.472656 58.410156zm0 0" fill="#fdddb6"/><path d="m82.613281 252.746094c-41.109375-65.304688-36.710937-132.648438-32.535156-160.117188.335937-2.1875 1.234375-4.140625 2.527344-5.746094-9.074219-.875-18.425781-2.28125-28.054688-4.289062-6.808593-1.417969-13.429687 3.164062-14.472656 10.035156-4.179687 27.46875-8.578125 94.8125 32.53125 160.117188 9.78125 15.535156 26.894531 24.929687 45.253906 24.929687h40.003907c-18.359376 0-35.472657-9.390625-45.253907-24.929687zm0 0" fill="#f2cda0"/><path d="m382.832031 90.007812-61.597656 67.011719c-9.402344 10.234375-25.320313 10.90625-35.558594 1.496094l-38.898437-35.757813c-10.234375-9.410156-10.898438-25.320312-1.496094-35.554687l46.621094-50.71875c5.898437 6.457031 13.238281 13.445313 22.25 20.328125l-43.320313 47.125 31.578125 29.035156 49.515625-53.867187h.007813c9.3125 4.140625 19.589844 7.847656 30.898437 10.902343zm0 0" fill="#fc5659"/><path d="m351.925781 79.109375-49.515625 53.863281-31.578125-29.035156 43.320313-47.125c10.324218 7.894531 22.808594 15.636719 37.773437 22.296875zm0 0" fill="#ffd54f"/><path d="m467.691406 90.960938c-30.011718 1.328124-57.910156-1.429688-82.933594-8.195313-40.203124-10.855469-78.703124-34.09375-101.5625-69.644531-5.980468-9.289063-16.878906-14.085938-27.75-12.226563-5.835937.984375-11.40625 4.035157-15.6875 8.597657-14.699218 15.695312-55.78125 53.601562-119.585937 66.597656-4.0625.828125-6.679687 4.785156-5.855469 8.84375.828125 4.0625 4.789063 6.683594 8.847656 5.855468 68.035157-13.855468 111.859376-54.296874 127.535157-71.035156 2.046875-2.179687 4.617187-3.625 7.257812-4.066406 4.953125-.851562 9.90625 1.332031 12.625 5.550781 3.269531 5.089844 7.027344 10.15625 11.214844 15.128907 0 0-42.046875 45.742187-42.070313 45.765624-11.960937 13.015626-11.046874 34.203126 1.945313 46.152344 0 0 39.039063 35.875 39.109375 35.9375 13.066406 11.816406 33.929688 10.898438 45.886719-2.066406.015625-.019531.039062-.039062.054687-.058594l58.550782-63.695312c25.351562 6.324218 53.273437 8.863281 83.082031 7.546875 12.417969-.550781 23.578125 7.675781 26.539062 19.5625 7.6875 30.820312-6.148437 80.375-31.492187 112.816406-20.566406 26.324219-40.527344 31.847656-53.652344 31.847656h-70.457031c-17.609375 0-34.988281-5.761719-48.9375-16.230469-28.210938-21.140624-48.492188-31.441406-61.996094-31.5-24.664063-.074218-46.683594 14.691407-53.449219 35.96875-2.242187 7.035157-8.539062 11.761719-15.671875 11.761719h-71.402343c-15.917969 0-30.464844-8.011719-38.910157-21.425781-40.007812-63.554688-35.332031-129.5625-31.464843-154.992188.386718-2.535156 2.949218-4.359374 5.527343-3.820312 23.0625 4.808594 46.070313 6.515625 68.386719 5.078125 4.136719-.269531 7.269531-3.835937 7.003906-7.96875s-3.816406-7.269531-7.96875-7.003906c-20.964844 1.351562-42.621094-.257813-64.363281-4.789063-10.855469-2.265625-21.75 5.292969-23.414063 16.246094-4.121093 27.089844-9.09375 97.421875 33.597657 165.242188 11.210937 17.804687 30.503906 28.433593 51.605469 28.433593h71.402343c13.691407 0 25.734375-8.925781 29.964844-22.210937 5.582031-17.554688 24.054687-25.519532 38.925781-25.519532h.167969c5.644531.023438 20.039063 3.757813 53.058594 28.5 16.527343 12.402344 37.101562 19.230469 57.9375 19.230469h70.457031c23.605469 0 46.25-13.007812 65.472656-37.613281 28.335938-36.269531 43.050782-90.300781 34.226563-125.679688-4.679688-18.78125-22.222657-31.777343-41.757813-30.921874zm-128.195312-9.445313-37.558594 40.859375-20.539062-18.882812 33.695312-36.65625c7.660156 5.417968 15.824219 10.328124 24.402344 14.679687zm-23.816406 70.429687c-6.429688 6.992188-17.824219 7.496094-24.847657 1.140626-.035156-.03125-39.003906-35.847657-39.003906-35.847657-6.980469-6.414062-7.566406-17.980469-1.054687-24.957031l41.214843-44.839844c3.554688 3.539063 7.289063 6.949219 11.175781 10.207032l-37.882812 41.214843c-2.277344 2.476563-2.574219 6.074219-.96875 8.839844.371094.636719 32.988281 30.789063 32.992188 30.792969 3 2.773437 7.84375 2.550781 10.597656-.445313l45.925781-49.957031c4.972656 2.058594 10.097656 3.949219 15.335937 5.667969 0 0-53.433593 58.125-53.484374 58.183593zm0 0"/></svg>