<!-- Light version with only what we need -->
<svg aria-hidden="true" style="position: absolute; width: 0; height: 0; overflow: hidden;" version="1.1" xmlns="http://www.w3.org/2000/svg" xmlns:xlink="http://www.w3.org/1999/xlink">
	<defs>
		<symbol id="cil-3d" viewBox="0 0 24 24">
			<title>
				3d
			</title>
			<path d="M20.798 6.064l-8.032-4.637c-0.215-0.126-0.474-0.2-0.75-0.2s-0.535 0.074-0.757 0.204l0.007-0.004-8.032 4.637c-0.451 0.265-0.749 0.747-0.75 1.299v9.275c0.001 0.552 0.299 1.034 0.743 1.295l0.007 0.004 8.032 4.637c0.215 0.126 0.474 0.2 0.75 0.2s0.535-0.074 0.757-0.204l-0.007 0.004 8.032-4.637c0.451-0.265 0.749-0.747 0.75-1.299v-9.275c-0.001-0.552-0.299-1.034-0.743-1.295l-0.007-0.004zM20.048 7.363v8.315l-7.282-4.116v-8.403zM3.984 7.363l7.282-4.204v8.4l-7.282 4.116zM12.016 21.275l-7.367-4.253 7.364-4.162 7.367 4.164z">
			</path>
		</symbol>
		
		<symbol id="cil-account-logout" viewBox="0 0 24 24">
			<title>
				account-logout
			</title>
			<path d="M3.617 12.752l12.872-0v-1.5h-12.872l3.518-3.518-1.061-1.061-5.329 5.329 5.329 5.329 1.061-1.061-3.518-3.518z">
			</path>
			<path d="M7.5 0.75v1.5h14.25v19.5h-14.25v1.5h15.75v-22.5h-15.75z">
			</path>
		</symbol>

		<symbol id="cil-bolt" viewBox="0 0 24 24">
			<title>
				bolt
			</title>
			<path d="M15.537 9l3.609-8.25h-12.215l-3.797 13.5h5.673l-1.853 9h2.759l12.574-14.25zM9.037 21.75h-0.241l1.853-9h-5.533l2.953-10.5h8.785l-3.609 8.25h5.719z">
			</path>
		</symbol>

		<symbol id="cil-chart-pie" viewBox="0 0 24 24">
			<title>
				chart-pie
			</title>
			<path d="M4.939 18.671c-1.659-1.661-2.685-3.955-2.685-6.489 0-5.071 4.111-9.182 9.182-9.182 1.719 0 3.328 0.472 4.704 1.295l-0.042-0.023 1.090-1.090c-1.628-1.056-3.619-1.684-5.756-1.684-5.899 0-10.682 4.782-10.682 10.682 0 2.949 1.195 5.62 3.128 7.553l-0-0c1.934 1.933 4.605 3.128 7.556 3.128 2.128 0 4.111-0.622 5.776-1.694l-0.042 0.025-1.093-1.093c-3.517 2.062-8.122 1.586-11.136-1.428z">
			</path>
			<path d="M21.98 16.55c0.55-1.291 0.87-2.793 0.87-4.37s-0.32-3.079-0.898-4.445l0.028 0.075c-0.041-0.1-0.085-0.199-0.129-0.298-0.598-1.321-1.387-2.449-2.346-3.407l-0.53-0.531-8.605 8.606 8.605 8.605 0.53-0.53c0.944-0.942 1.722-2.049 2.289-3.275l0.029-0.070c0.054-0.119 0.107-0.239 0.157-0.36zM18.954 5.716c1.489 1.725 2.396 3.988 2.396 6.464s-0.907 4.739-2.406 6.476l0.011-0.013-6.464-6.464z">
			</path>
		</symbol>

		<symbol id="cil-contact" viewBox="0 0 24 24">
			<title>
				contact
			</title>
			<path d="M22.125 2.25h-20.25c-0.621 0.001-1.124 0.504-1.125 1.125v17.25c0.001 0.621 0.504 1.124 1.125 1.125h4.125v-2.757c0-0.351 0.192-0.656 0.477-0.817l0.005-0.002 4.311-2.396-1.419-3.546v-2.856c0-1.45 1.175-2.625 2.625-2.625s2.625 1.175 2.625 2.625v0 2.856l-1.419 3.546 4.312 2.396c0.29 0.163 0.482 0.469 0.482 0.819v2.757h4.125c0.621-0.001 1.124-0.504 1.125-1.125v-17.25c-0.001-0.621-0.504-1.124-1.125-1.125h-0zM21.75 20.25h-2.25v-1.257c-0-0.911-0.5-1.706-1.241-2.124l-0.012-0.006h0l-3.157-1.755 1.035-2.588v-3.144c0-2.278-1.847-4.125-4.125-4.125s-4.125 1.847-4.125 4.125v0 3.144l1.035 2.588-3.157 1.755c-0.753 0.425-1.253 1.219-1.253 2.13v1.257h-2.25v-16.5h19.5z">
			</path>
		</symbol>

		<symbol id="cil-fire" viewBox="0 0 24 24">
			<title>
				fire
			</title>
			<path d="M14.585 12.075c0.258-0.423 0.524-0.861 0.788-1.313 0.881-1.51 1.043-3.032 0.481-4.523-1.134-3.008-4.925-4.841-5.802-5.134l-0.617-0.206-0.963 1.926 0.465 0.38c0.005 0.004 0.521 0.455 0.556 1.139 0.029 0.584-0.291 1.214-0.951 1.875-0.459 0.459-0.962 0.902-1.495 1.371-2.242 1.975-4.783 4.213-4.783 8.448q0 0.087 0.002 0.174c0.035 1.963 0.862 3.727 2.175 4.99l0.002 0.002c1.3 1.266 3.078 2.046 5.039 2.046 0.005 0 0.011 0 0.016-0h4.316l-0.533-1.082c-2.165-4.395-0.634-6.909 1.304-10.093zM9.496 21.75c-3.103 0-5.674-2.497-5.732-5.566q-0.001-0.072-0.001-0.146c0-3.557 2.173-5.471 4.274-7.322 0.527-0.464 1.072-0.944 1.564-1.436 0.973-0.973 1.44-1.986 1.388-3.011-0.024-0.459-0.147-0.884-0.346-1.262l0.008 0.017c1.305 0.713 3.165 2.065 3.798 3.744 0.4 1.062 0.279 2.122-0.373 3.238-0.256 0.439-0.519 0.871-0.773 1.288-1.86 3.055-3.624 5.952-1.849 10.455z">
			</path>
			<path d="M21.949 15.99q-0.019-0.074-0.039-0.149c-0.541-1.984-3.537-4.536-3.877-4.82l-0.682-0.571-0.447 0.769c-1.020 1.753-1.895 3.352-2.276 5.166-0.435 2.069-0.142 4.171 0.895 6.428l0.201 0.437h0.51c0.005 0 0.011 0 0.017 0 1.881 0 3.554-0.885 4.628-2.261l0.010-0.013c0.771-0.973 1.238-2.218 1.238-3.572 0-0.502-0.064-0.99-0.185-1.454l0.009 0.040zM19.705 20.054c-0.72 0.923-1.787 1.546-3.002 1.672l-0.019 0.002c-1.478-3.558-0.606-5.983 1.061-8.958 1.108 1.031 2.459 2.517 2.718 3.467q0.016 0.060 0.031 0.12c0.083 0.314 0.13 0.675 0.13 1.047 0 1.005-0.346 1.93-0.926 2.66l0.007-0.009z">
			</path>
		</symbol>

		<symbol id="cil-lock-locked" viewBox="0 0 24 24">
			<title>
				lock-locked
			</title>
			<path d="M18 9.375v-2.625c0-3.314-2.686-6-6-6s-6 2.686-6 6v0 2.625h-1.875v6c0 4.342 3.533 7.875 7.875 7.875s7.875-3.533 7.875-7.875v-6zM7.5 6.75c0-2.485 2.015-4.5 4.5-4.5s4.5 2.015 4.5 4.5v0 2.625h-9zM18.375 15.375c0 3.515-2.86 6.375-6.375 6.375s-6.375-2.86-6.375-6.375v-4.5h12.75z">
			</path>
		</symbol>

		<symbol id="cil-magnifying-glass" viewBox="0 0 24 24">
			<title>
				magnifying-glass
			</title>
			<path d="M22.481 18.737l-3.801-3.801-2.923-1.208c0.934-1.314 1.493-2.951 1.493-4.719 0-0.003 0-0.006 0-0.009v0c0-4.549-3.701-8.25-8.25-8.25s-8.25 3.701-8.25 8.25 3.701 8.25 8.25 8.25c0.003 0 0.006 0 0.009 0 1.783 0 3.433-0.569 4.779-1.534l-0.025 0.017 1.205 2.916 3.801 3.801c0.475 0.478 1.133 0.773 1.86 0.773 1.45 0 2.625-1.175 2.625-2.625 0-0.727-0.296-1.385-0.773-1.86l-0-0zM2.25 9c0-3.722 3.028-6.75 6.75-6.75s6.75 3.028 6.75 6.75-3.028 6.75-6.75 6.75-6.75-3.028-6.75-6.75zM21.42 21.388c-0.204 0.203-0.485 0.329-0.795 0.329s-0.592-0.126-0.796-0.329l-3.589-3.589-1.12-2.711 2.711 1.12 3.589 3.589c0.203 0.204 0.329 0.485 0.329 0.795s-0.126 0.592-0.329 0.796l0-0z">
			</path>
		</symbol>

		<symbol id="cil-menu" viewBox="0 0 24 24">
			<title>
				menu
			</title>
			<path d="M3.75 4.5h16.5v1.5h-16.5v-1.5z">
			</path>
			<path d="M3.75 11.25h16.5v1.5h-16.5v-1.5z">
			</path>
			<path d="M3.75 18h16.5v1.5h-16.5v-1.5z">
			</path>
		</symbol>

		<symbol id="cil-notes" viewBox="0 0 24 24">
			<title>
				notes
			</title>
			<path d="M5.25 7.125h13.5v1.5h-13.5v-1.5z">
			</path>
			<path d="M5.25 11.25h13.5v1.5h-13.5v-1.5z">
			</path>
			<path d="M5.25 15.375h7.125v1.5h-7.125v-1.5z">
			</path>
			<path d="M1.5 2.25v19.5h21v-19.5zM21 20.25h-18v-16.5h18z">
			</path>
		</symbol>

		<symbol id="cil-pencil" viewBox="0 0 24 24">
			<title>
				pencil
			</title>
			<path d="M22.029 1.971c-0.754-0.754-1.795-1.22-2.944-1.22s-2.191 0.466-2.944 1.22l-12.773 12.773-2.258 6.657c-0.040 0.113-0.063 0.243-0.063 0.378 0 0.323 0.132 0.616 0.344 0.827l0.004 0.004c0.211 0.212 0.503 0.344 0.826 0.344h0c0.136-0 0.266-0.023 0.388-0.066l-0.008 0.003 6.657-2.258 12.773-12.773c0.754-0.754 1.22-1.795 1.22-2.944s-0.466-2.191-1.22-2.944v0zM8.443 19.325l-5.702 1.934 1.934-5.702 9.785-9.785 3.767 3.767zM20.969 6.799l-1.68 1.68-3.767-3.767 1.68-1.68c0.482-0.483 1.149-0.783 1.886-0.783 1.471 0 2.664 1.193 2.664 2.664 0 0.737-0.299 1.404-0.783 1.886l-0 0z">
			</path>
		</symbol>

		<symbol id="cil-people" viewBox="0 0 24 24">
			<title>
				people
			</title>
			<path d="M21.682 14.826l-3.016-1.974 1.161-2.129c0.269-0.5 0.427-1.093 0.428-1.724v-3.375c0-0.004 0-0.008 0-0.012 0-2.691-2.181-4.872-4.872-4.872-1.281 0-2.446 0.494-3.316 1.302l0.003-0.003 1.019 1.1c0.6-0.556 1.405-0.897 2.291-0.897 1.864 0 3.375 1.511 3.375 3.375 0 0.002 0 0.005 0 0.007v-0 3.375c-0 0.367-0.091 0.713-0.25 1.018l0.006-0.012-1.824 3.344 4.175 2.732c0.542 0.358 0.894 0.965 0.894 1.654 0 0.002 0 0.005-0 0.007v-0 2.508h-3.375v1.5h4.875v-4.008c0-0.003 0-0.006 0-0.009 0-1.211-0.62-2.277-1.56-2.898l-0.013-0.008z">
			</path>
			<path d="M14.932 16.326l-3.016-1.974 1.161-2.129c0.269-0.5 0.427-1.093 0.428-1.724v-3.375c-0.002-2.694-2.184-4.877-4.877-4.881h-0c-2.687 0-4.873 2.19-4.873 4.881v3.375c-0 0.005-0 0.011-0 0.017 0 0.624 0.156 1.212 0.432 1.726l-0.010-0.020 1.168 2.14-2.999 1.962c-0.953 0.629-1.573 1.695-1.573 2.905 0 0.002 0 0.004 0 0.006v-0l-0.023 4.012h15.754v-4.008c0-0.003 0-0.006 0-0.009 0-1.211-0.62-2.277-1.56-2.898l-0.013-0.008zM15.004 21.75h-12.746l0.015-2.508c0-0.002 0-0.004 0-0.007 0-0.689 0.352-1.295 0.887-1.649l0.007-0.005 4.157-2.72-1.831-3.356c-0.151-0.29-0.239-0.633-0.239-0.997 0-0.003 0-0.006 0-0.009v0-3.375c0-1.864 1.511-3.375 3.375-3.375s3.375 1.511 3.375 3.375v0 3.375c-0 0.367-0.091 0.713-0.25 1.018l0.006-0.012-1.824 3.344 4.175 2.732c0.542 0.358 0.894 0.965 0.894 1.654 0 0.002 0 0.005-0 0.007v-0z">
			</path>
		</symbol>

		<symbol id="cil-settings" viewBox="0 0 24 24">
			<title>
				settings
			</title>
			<path d="M11.491 7.875c-2.278 0-4.125 1.847-4.125 4.125s1.847 4.125 4.125 4.125c2.278 0 4.125-1.847 4.125-4.125v0c-0.003-2.277-1.848-4.122-4.125-4.125h-0zM11.491 14.625c-1.45 0-2.625-1.175-2.625-2.625s1.175-2.625 2.625-2.625c1.45 0 2.625 1.175 2.625 2.625v0c-0.002 1.449-1.176 2.623-2.625 2.625h-0z">
			</path>
			<path d="M21.783 15.109l-1.489-1.226c0.126-0.566 0.198-1.216 0.198-1.883s-0.072-1.317-0.209-1.943l0.011 0.060 1.489-1.226c0.21-0.173 0.342-0.432 0.342-0.723 0-0.173-0.047-0.335-0.129-0.474l0.002 0.004-1.529-2.648c-0.164-0.283-0.466-0.469-0.811-0.469-0.119 0-0.232 0.022-0.337 0.062l0.006-0.002-1.808 0.677c-0.908-0.823-1.996-1.467-3.196-1.866l-0.064-0.018-0.317-1.902c-0.075-0.447-0.459-0.783-0.922-0.783-0.001 0-0.002 0-0.003 0h-3.057c-0.001 0-0.002 0-0.003 0-0.463 0-0.847 0.336-0.921 0.778l-0.001 0.005-0.317 1.902c-1.263 0.417-2.351 1.061-3.267 1.891l0.008-0.007-1.808-0.677c-0.098-0.038-0.211-0.060-0.33-0.060-0.345 0-0.646 0.187-0.808 0.465l-0.002 0.004-1.529 2.648c-0.079 0.135-0.126 0.296-0.126 0.469 0 0.291 0.133 0.55 0.341 0.722l0.002 0.001 1.489 1.226c-0.126 0.566-0.198 1.216-0.198 1.883s0.072 1.317 0.209 1.943l-0.011-0.060-1.489 1.226c-0.21 0.173-0.342 0.432-0.342 0.723 0 0.173 0.047 0.335 0.129 0.474l-0.002-0.004 1.529 2.648c0.164 0.283 0.466 0.47 0.811 0.47 0.119 0 0.232-0.022 0.337-0.062l-0.006 0.002 1.808-0.677c0.908 0.823 1.996 1.467 3.196 1.866l0.064 0.018 0.317 1.902c0.075 0.447 0.459 0.783 0.922 0.783 0.001 0 0.002 0 0.003 0h3.057c0.001 0 0.002 0 0.003 0 0.463 0 0.847-0.336 0.921-0.778l0.001-0.005 0.317-1.902c1.263-0.417 2.351-1.061 3.267-1.891l-0.008 0.007 1.808 0.677c0.098 0.038 0.211 0.060 0.33 0.060 0.345 0 0.646-0.187 0.808-0.465l0.002-0.004 1.529-2.648c0.079-0.135 0.126-0.296 0.126-0.469 0-0.291-0.133-0.55-0.341-0.722l-0.002-0.001zM19.409 17.786l-2.255-0.845-0.341 0.344c-0.914 0.921-2.064 1.605-3.352 1.955l-0.053 0.012-0.469 0.124-0.396 2.374h-2.104l-0.396-2.374-0.469-0.124c-1.341-0.362-2.491-1.047-3.404-1.967l-0-0-0.341-0.344-2.255 0.845-1.052-1.822 1.858-1.529-0.127-0.467c-0.166-0.59-0.261-1.267-0.261-1.967s0.095-1.377 0.274-2.020l-0.013 0.053 0.127-0.467-1.858-1.529 1.052-1.822 2.255 0.845 0.341-0.344c0.914-0.921 2.064-1.605 3.352-1.955l0.053-0.012 0.469-0.124 0.396-2.374h2.104l0.396 2.374 0.469 0.124c1.341 0.362 2.491 1.047 3.404 1.967l0 0 0.341 0.344 2.255-0.845 1.052 1.822-1.858 1.529 0.127 0.467c0.166 0.59 0.261 1.267 0.261 1.967s-0.095 1.377-0.274 2.020l0.013-0.053-0.127 0.467 1.858 1.529z">
			</path>
		</symbol>

		<symbol id="cil-shield-alt" viewBox="0 0 24 24">
			<title>
				shield-alt
			</title>
			<path d="M22.2 4.129c-0.063-0.006-6.373-0.668-9.338-3.199l-0.21-0.18h-1.303l-0.21 0.18c-2.96 2.526-9.275 3.193-9.338 3.199l-0.675 0.068v0.678c0 4.178 0.686 7.755 2.040 10.632 1.786 3.796 4.692 6.266 8.638 7.342l0.197 0.054 0.197-0.054c3.945-1.076 6.851-3.546 8.638-7.342 1.354-2.877 2.040-6.454 2.040-10.632v-0.678zM21.369 5.537q-0.011 0.599-0.044 1.213h-8.574v-4.035c2.809 1.855 6.986 2.593 8.619 2.822zM12.75 15h6.669c-0.35 0.723-0.715 1.337-1.124 1.918l0.029-0.043h-5.573zM12.75 13.5v-1.875h7.87c-0.203 0.816-0.416 1.487-0.664 2.14l0.043-0.13v-0.135zM12.75 10.125v-1.875h8.455c-0.066 0.624-0.153 1.251-0.264 1.875zM2.631 5.537c1.633-0.229 5.81-0.967 8.619-2.822v18.389c-6.843-2.43-8.508-9.602-8.619-15.568zM12.75 21.104v-2.729h4.329c-1.139 1.158-2.561 2.102-4.329 2.729z">
			</path>
		</symbol>

		<symbol id="cil-speedometer" viewBox="0 0 24 24">
			<title>
				speedometer
			</title>
			<path d="M19.955 6.67c-2.036-2.036-4.848-3.295-7.955-3.295-6.213 0-11.25 5.037-11.25 11.25 0 0 0 0 0 0v0 4.125h6.75v-1.5h-5.25v-2.625c0-5.376 4.374-9.75 9.75-9.75s9.75 4.374 9.75 9.75v2.625h-5.25v1.5h6.75v-4.125c0-0.009 0-0.020 0-0.031 0-3.097-1.26-5.9-3.295-7.924l-0-0z">
			</path>
			<path d="M3.75 12.375h1.5v1.5h-1.5v-1.5z">
			</path>
			<path d="M11.25 6h1.5v1.5h-1.5v-1.5z">
			</path>
			<path d="M6.375 7.875h1.5v1.5h-1.5v-1.5z">
			</path>
			<path d="M18.75 12.375h1.5v1.5h-1.5v-1.5z">
			</path>
			<path d="M13.932 15.708l3.244-6.758-1.352-0.649-3.243 6.756c-0.177-0.037-0.379-0.058-0.587-0.058-1.66 0-3.007 1.346-3.007 3.007s1.346 3.007 3.007 3.007c1.66 0 3.007-1.346 3.007-3.007 0-0.92-0.413-1.743-1.063-2.294l-0.004-0.004zM12 19.5c-0.828 0-1.5-0.672-1.5-1.5s0.672-1.5 1.5-1.5c0.828 0 1.5 0.672 1.5 1.5v0c-0.001 0.828-0.672 1.499-1.5 1.5h-0z">
			</path>
		</symbol>

		<symbol id="cil-terminal" viewBox="0 0 24 24">
			<title>
				terminal
			</title>
			<path d="M22.125 1.875h-20.25c-0.621 0.001-1.124 0.504-1.125 1.125v18.375c0.001 0.621 0.504 1.124 1.125 1.125h20.25c0.621-0.001 1.124-0.504 1.125-1.125v-18.375c-0.001-0.621-0.504-1.124-1.125-1.125h-0zM21.75 21h-19.5v-17.625h19.5z">
			</path>
			<path d="M5.436 13.248l3.443-3.875-3.443-3.871-1.121 0.997 2.557 2.875-2.557 2.878 1.121 0.996z">
			</path>
			<path d="M10.125 11.25h6v1.5h-6v-1.5z">
			</path>
		</symbol>

		<symbol id="cil-x" viewBox="0 0 24 24">
			<title>
				x
			</title>
			<path d="M20.030 5.030l-1.061-1.061-6.97 6.97-6.97-6.97-1.061 1.061 6.97 6.97-6.97 6.97 1.061 1.061 6.97-6.97 6.97 6.97 1.061-1.061-6.97-6.97 6.97-6.97z">
			</path>
		</symbol>

		<symbol id="cil-moon" viewBox="0 0 24 24">
			<title>
				moon
			</title>
			<path d="M12.576 23.25c-3.168 0-6.14-1.228-8.369-3.457s-3.457-5.201-3.457-8.369c0-0.001 0-0.002 0-0.003 0-4.58 2.603-8.551 6.411-10.515l0.066-0.031c0.151-0.079 0.33-0.125 0.52-0.125 0.633 0 1.146 0.513 1.146 1.146 0 0.12-0.019 0.236-0.053 0.345l0.002-0.008c-0.293 0.913-0.462 1.962-0.462 3.051 0 2.853 1.158 5.436 3.030 7.304l0 0c1.858 1.872 4.432 3.030 7.277 3.030 0.006 0 0.013 0 0.019-0h-0.001c0.002 0 0.005 0 0.008 0 1.089 0 2.139-0.169 3.125-0.482l-0.073 0.020c0.101-0.032 0.217-0.051 0.337-0.051 0.633 0 1.146 0.513 1.146 1.146 0 0.19-0.046 0.369-0.128 0.527l0.003-0.006c-1.995 3.874-5.967 6.477-10.546 6.477-0.001 0-0.002 0-0.003 0h0zM7.186 2.615c-2.98 1.835-4.936 5.080-4.936 8.782 0 0.010 0 0.019 0 0.029v-0.002c0 5.694 4.632 10.326 10.326 10.326 0.008 0 0.018 0 0.028 0 3.702 0 6.946-1.957 8.756-4.892l0.025-0.044c-0.803 0.194-1.725 0.305-2.673 0.305-0.002 0-0.003 0-0.005 0h0c-0.007 0-0.014 0-0.022 0-3.258 0-6.206-1.326-8.333-3.469l-0.001-0.001c-2.144-2.14-3.47-5.098-3.47-8.366 0-0.947 0.111-1.867 0.321-2.749l-0.016 0.080z">
			</path>
		</symbol>

		<symbol id="cil-sun" viewBox="0 0 24 24">
			<title>
				sun
			</title>
			<path d="M12 4.875c-3.929 0-7.125 3.196-7.125 7.125s3.196 7.125 7.125 7.125 7.125-3.196 7.125-7.125-3.196-7.125-7.125-7.125zM12 17.625c-3.107 0-5.625-2.518-5.625-5.625s2.518-5.625 5.625-5.625c3.107 0 5.625 2.518 5.625 5.625v0c-0.004 3.105-2.52 5.621-5.625 5.625h-0z">
			</path>
			<path d="M11.25 0.75h1.5v2.25h-1.5v-2.25z">
			</path>
			<path d="M11.25 21h1.5v2.25h-1.5v-2.25z">
			</path>
			<path d="M21 11.25h2.25v1.5h-2.25v-1.5z">
			</path>
			<path d="M0.75 11.25h2.25v1.5h-2.25v-1.5z">
			</path>
			<path d="M18.22 19.28l1.061-1.061 1.5 1.5-1.061 1.061-1.5-1.5z">
			</path>
			<path d="M3.22 4.28l1.061-1.061 1.5 1.5-1.061 1.061-1.5-1.5z">
			</path>
			<path d="M3.22 19.72l1.5-1.5 1.061 1.061-1.5 1.5-1.061-1.061z">
			</path>
			<path d="M18.22 4.72l1.5-1.5 1.061 1.061-1.5 1.5-1.061-1.061z">
			</path>
		</symbol>

		<symbol id="cil-external-link" viewBox="0 0 24 24">
			<title>
				external-link
			</title>
			<path d="M18.75 21.75h-16.5v-16.875h9v-1.5h-10.5v19.875h19.5v-10.5h-1.5v9z">
			</path>
			<path d="M14.25 0.75v1.5h6.439l-11.845 11.845 1.061 1.061 11.845-11.845v6.439h1.5v-9h-9z">
			</path>
		</symbol>

		<symbol id="cil-excerpt" viewBox="0 0 24 24">
			<title>
				excerpt
			</title>
			<path d="M0.75 16.125h22.5v1.5h-22.5v-1.5z">
			</path>
			<path d="M0.75 7.141h22.5v1.5h-22.5v-1.5z">
			</path>
			<path d="M0.75 11.625h15.375v1.5h-15.375v-1.5z">
			</path>
			<path d="M0.75 2.625h18v1.5h-18v-1.5z">
			</path>
			<path d="M0.75 20.625h1.5v1.5h-1.5v-1.5z">
			</path>
			<path d="M11.25 20.625h1.5v1.5h-1.5v-1.5z">
			</path>
			<path d="M6 20.625h1.5v1.5h-1.5v-1.5z">
			</path>
		</symbol>

		<symbol id="cil-cloud-download" viewBox="0 0 24 24">
			<title>
				cloud-download
			</title>
			<path d="M12.75 20.379v-10.573h-1.5v10.573l-2.432-2.432-1.061 1.061 4.243 4.243 4.243-4.243-1.061-1.061-2.432 2.432z">
			</path>
			<path d="M18.75 7.555c0-3.722-3.028-6.75-6.75-6.75s-6.75 3.028-6.75 6.75c-2.485 0-4.5 2.015-4.5 4.5s2.015 4.5 4.5 4.5h3.75v-1.5h-3.75c-1.657 0-3-1.343-3-3s1.343-3 3-3v0h1.5v-1.5c0-2.899 2.351-5.25 5.25-5.25s5.25 2.351 5.25 5.25v0 1.5h1.5c1.657 0 3 1.343 3 3s-1.343 3-3 3v0h-3.75v1.5h3.75c2.485 0 4.5-2.015 4.5-4.5s-2.015-4.5-4.5-4.5v0z">
			</path>
		</symbol>

		<symbol id="cil-user-follow" viewBox="0 0 24 24">
			<title>
				user-follow
			</title>
			<path d="M9.75 0.75c-2.898 0.003-5.247 2.352-5.25 5.25v3.735c0.001 0.658 0.17 1.277 0.468 1.815l-0.010-0.019 1.287 2.359-3.414 2.219c-1.033 0.676-1.706 1.828-1.706 3.137 0 0.002 0 0.005 0 0.007v-0 3.997h13.5v-1.5h-12v-2.497c0-0.001 0-0.003 0-0.004 0-0.785 0.404-1.477 1.015-1.877l0.009-0.005 4.578-2.976-1.952-3.578c-0.173-0.311-0.274-0.682-0.275-1.077v-3.735c0-2.071 1.679-3.75 3.75-3.75s3.75 1.679 3.75 3.75v0 3.735c-0 0.395-0.102 0.766-0.281 1.089l0.006-0.012-1.952 3.579 3.352 2.179v-1.789l-1.37-0.89 1.287-2.359c0.288-0.519 0.457-1.137 0.458-1.796v-3.735c-0.003-2.898-2.352-5.247-5.25-5.25h-0z">
			</path>
			<path d="M19.875 18.75v-3h-1.5v3h-3v1.5h3v3h1.5v-3h3v-1.5h-3z">
			</path>
		</symbol>

		<!-- Imported -->
        <symbol id="discord" viewBox="0 0 448 512">
			<title>
				discord
			</title>
			<path d="M297.216 243.2c0 15.616-11.52 28.416-26.112 28.416-14.336 0-26.112-12.8-26.112-28.416s11.52-28.416 26.112-28.416c14.592 0 26.112 12.8 26.112 28.416zm-119.552-28.416c-14.592 0-26.112 12.8-26.112 28.416s11.776 28.416 26.112 28.416c14.592 0 26.112-12.8 26.112-28.416.256-15.616-11.52-28.416-26.112-28.416zM448 52.736V512c-64.494-56.994-43.868-38.128-118.784-107.776l13.568 47.36H52.48C23.552 451.584 0 428.032 0 398.848V52.736C0 23.552 23.552 0 52.48 0h343.04C424.448 0 448 23.552 448 52.736zm-72.96 242.688c0-82.432-36.864-149.248-36.864-149.248-36.864-27.648-71.936-26.88-71.936-26.88l-3.584 4.096c43.52 13.312 63.744 32.512 63.744 32.512-60.811-33.329-132.244-33.335-191.232-7.424-9.472 4.352-15.104 7.424-15.104 7.424s21.248-20.224 67.328-33.536l-2.56-3.072s-35.072-.768-71.936 26.88c0 0-36.864 66.816-36.864 149.248 0 0 21.504 37.12 78.08 38.912 0 0 9.472-11.52 17.152-21.248-32.512-9.728-44.8-30.208-44.8-30.208 3.766 2.636 9.976 6.053 10.496 6.4 43.21 24.198 104.588 32.126 159.744 8.96 8.96-3.328 18.944-8.192 29.44-15.104 0 0-12.8 20.992-46.336 30.464 7.68 9.728 16.896 20.736 16.896 20.736 56.576-1.792 78.336-38.912 78.336-38.912z" />
		</symbol>

		<symbol id="discord-event" viewBox="0 0 24 24">
			<title>
				discord event
			</title>
			<g fill="none" fill-rule="evenodd">
				<path fill="currentColor" d="M19 3h-1V1h-2v2H8V1H6v2H5c-1.11 0-1.99.9-1.99 2L3 19a2 2 0 0 0 2 2h14c1.1 0 2-.9 2-2V5c0-1.1-.9-2-2-2zm0 16H5V8h14v11zM7 10h5v5H7v-5z"></path>
				<rect width="24" height="24"></rect>
			</g>
		</symbol>

	</defs>
</svg>
