<!-- Light version with only what we need -->
<svg aria-hidden="true" style="position: absolute; width: 0; height: 0; overflow: hidden;" version="1.1" xmlns="http://www.w3.org/2000/svg" xmlns:xlink="http://www.w3.org/1999/xlink">
	<defs>
		<!-- From CoreUI Icons - https://github.com/coreui/coreui-icons/blob/main/LICENS -->
		<symbol id="cil-magnifying-glass" viewBox="0 0 24 24">
			<title>
				magnifying-glass
			</title>
			<path d="M22.481 18.737l-3.801-3.801-2.923-1.208c0.934-1.314 1.493-2.951 1.493-4.719 0-0.003 0-0.006 0-0.009v0c0-4.549-3.701-8.25-8.25-8.25s-8.25 3.701-8.25 8.25 3.701 8.25 8.25 8.25c0.003 0 0.006 0 0.009 0 1.783 0 3.433-0.569 4.779-1.534l-0.025 0.017 1.205 2.916 3.801 3.801c0.475 0.478 1.133 0.773 1.86 0.773 1.45 0 2.625-1.175 2.625-2.625 0-0.727-0.296-1.385-0.773-1.86l-0-0zM2.25 9c0-3.722 3.028-6.75 6.75-6.75s6.75 3.028 6.75 6.75-3.028 6.75-6.75 6.75-6.75-3.028-6.75-6.75zM21.42 21.388c-0.204 0.203-0.485 0.329-0.795 0.329s-0.592-0.126-0.796-0.329l-3.589-3.589-1.12-2.711 2.711 1.12 3.589 3.589c0.203 0.204 0.329 0.485 0.329 0.795s-0.126 0.592-0.329 0.796l0-0z">
			</path>
		</symbol>

		<!-- From CoreUI Icons - https://github.com/coreui/coreui-icons/blob/main/LICENS -->
		<symbol id="cil-x" viewBox="0 0 24 24">
			<title>
				x
			</title>
			<path d="M20.030 5.030l-1.061-1.061-6.97 6.97-6.97-6.97-1.061 1.061 6.97 6.97-6.97 6.97 1.061 1.061 6.97-6.97 6.97 6.97 1.061-1.061-6.97-6.97 6.97-6.97z">
			</path>
		</symbol>

		<!-- Imported -->
        <symbol id="discord" viewBox="0 0 448 512">
			<title>
				discord
			</title>
			<path d="M297.216 243.2c0 15.616-11.52 28.416-26.112 28.416-14.336 0-26.112-12.8-26.112-28.416s11.52-28.416 26.112-28.416c14.592 0 26.112 12.8 26.112 28.416zm-119.552-28.416c-14.592 0-26.112 12.8-26.112 28.416s11.776 28.416 26.112 28.416c14.592 0 26.112-12.8 26.112-28.416.256-15.616-11.52-28.416-26.112-28.416zM448 52.736V512c-64.494-56.994-43.868-38.128-118.784-107.776l13.568 47.36H52.48C23.552 451.584 0 428.032 0 398.848V52.736C0 23.552 23.552 0 52.48 0h343.04C424.448 0 448 23.552 448 52.736zm-72.96 242.688c0-82.432-36.864-149.248-36.864-149.248-36.864-27.648-71.936-26.88-71.936-26.88l-3.584 4.096c43.52 13.312 63.744 32.512 63.744 32.512-60.811-33.329-132.244-33.335-191.232-7.424-9.472 4.352-15.104 7.424-15.104 7.424s21.248-20.224 67.328-33.536l-2.56-3.072s-35.072-.768-71.936 26.88c0 0-36.864 66.816-36.864 149.248 0 0 21.504 37.12 78.08 38.912 0 0 9.472-11.52 17.152-21.248-32.512-9.728-44.8-30.208-44.8-30.208 3.766 2.636 9.976 6.053 10.496 6.4 43.21 24.198 104.588 32.126 159.744 8.96 8.96-3.328 18.944-8.192 29.44-15.104 0 0-12.8 20.992-46.336 30.464 7.68 9.728 16.896 20.736 16.896 20.736 56.576-1.792 78.336-38.912 78.336-38.912z" />
		</symbol>
	</defs>
</svg>
