<?xml version="1.0" encoding="UTF-8" standalone="no"?><!-- Generator: Gravit.io --><svg xmlns="http://www.w3.org/2000/svg" xmlns:xlink="http://www.w3.org/1999/xlink" style="isolation:isolate" viewBox="0 0 30 30" width="30pt" height="30pt"><defs><clipPath id="_clipPath_pMqQmL8WrNlUbabxbfItEyzd9KCwkzts"><rect width="30" height="30"/></clipPath></defs><g clip-path="url(#_clipPath_pMqQmL8WrNlUbabxbfItEyzd9KCwkzts)"><g><path d=" M 2.863 18.68 L 2.863 18.68 L 2.863 5.699 L 2.863 5.699 Q 2.863 5.425 3.124 5.425 L 3.124 5.425 L 5.007 5.425 L 5.007 5.425 Q 5.268 5.425 5.268 5.699 L 5.268 5.699 L 5.268 9.843 L 10.732 9.843 L 10.732 9.843 Q 10.993 9.843 10.993 10.118 L 10.993 10.118 L 10.993 11.451 L 10.993 11.451 Q 10.993 11.725 10.732 11.725 L 10.732 11.725 L 5.268 11.725 L 5.268 18.68 L 5.268 18.68 Q 5.268 20.667 6.19 21.68 L 6.19 21.68 L 6.19 21.68 Q 7.111 22.693 8.745 22.693 L 8.745 22.693 L 8.745 22.693 Q 10.183 22.693 11.32 22.301 L 11.32 22.301 L 11.699 22.157 L 11.699 22.157 Q 11.961 22.052 11.961 22.379 L 11.961 22.379 L 11.961 23.686 L 11.961 23.686 Q 11.961 23.909 11.699 24.039 L 11.699 24.039 L 11.699 24.039 Q 10.353 24.575 8.484 24.575 L 8.484 24.575 L 8.484 24.575 Q 5.908 24.575 4.386 22.954 L 4.386 22.954 L 4.386 22.954 Q 2.863 21.333 2.863 18.68 Z " fill="rgb(246,126,66)"/><path d=" M 15.765 24.17 L 13.843 24.17 L 13.843 24.17 Q 13.634 24.17 13.608 24.059 L 13.608 24.059 L 13.608 24.059 Q 13.582 23.948 13.634 23.909 L 13.634 23.909 L 19.007 17.02 L 13.634 10.118 L 13.634 10.118 Q 13.595 10.078 13.582 10.026 L 13.582 10.026 L 13.582 10.026 Q 13.582 9.843 13.843 9.843 L 13.843 9.843 L 15.765 9.843 L 15.765 9.843 Q 16.092 9.843 16.301 10.118 L 16.301 10.118 L 20.353 15.307 L 24.418 10.118 L 24.418 10.118 Q 24.627 9.856 24.954 9.843 L 24.954 9.843 L 26.876 9.843 L 26.876 9.843 Q 27.137 9.843 27.137 10.026 L 27.137 10.026 L 27.137 10.026 Q 27.137 10.078 27.098 10.118 L 27.098 10.118 L 21.686 17.02 L 27.098 23.909 L 27.098 23.909 Q 27.137 23.948 27.137 24 L 27.137 24 L 27.137 24 Q 27.137 24.17 26.876 24.17 L 26.876 24.17 L 24.954 24.17 L 24.954 24.17 Q 24.627 24.17 24.418 23.909 L 24.418 23.909 L 20.353 18.732 L 16.301 23.909 L 16.301 23.909 Q 16.092 24.17 15.765 24.17 L 15.765 24.17 Z " fill="rgb(237,6,134)"/></g></g></svg>