<?xml version="1.0" encoding="UTF-8" standalone="no"?><!-- Generator: Gravit.io --><svg xmlns="http://www.w3.org/2000/svg" xmlns:xlink="http://www.w3.org/1999/xlink" style="isolation:isolate" viewBox="0 0 89 25" width="89pt" height="25pt"><defs><clipPath id="_clipPath_D0YQcHheS64ycauLkAJDeIh7wooPplH1"><rect width="89" height="25"/></clipPath></defs><g clip-path="url(#_clipPath_D0YQcHheS64ycauLkAJDeIh7wooPplH1)"><path d=" M 1.502 14.746 L 1.502 14.746 L 1.502 5.049 L 1.502 5.049 Q 1.502 4.844 1.697 4.844 L 1.697 4.844 L 3.104 4.844 L 3.104 4.844 Q 3.299 4.844 3.299 5.049 L 3.299 5.049 L 3.299 8.145 L 7.381 8.145 L 7.381 8.145 Q 7.576 8.145 7.576 8.35 L 7.576 8.35 L 7.576 9.346 L 7.576 9.346 Q 7.576 9.551 7.381 9.551 L 7.381 9.551 L 3.299 9.551 L 3.299 14.746 L 3.299 14.746 Q 3.299 16.23 3.987 16.987 L 3.987 16.987 L 3.987 16.987 Q 4.676 17.744 5.896 17.744 L 5.896 17.744 L 5.896 17.744 Q 6.971 17.744 7.82 17.451 L 7.82 17.451 L 8.104 17.344 L 8.104 17.344 Q 8.299 17.266 8.299 17.51 L 8.299 17.51 L 8.299 18.486 L 8.299 18.486 Q 8.299 18.652 8.104 18.75 L 8.104 18.75 L 8.104 18.75 Q 7.098 19.15 5.701 19.15 L 5.701 19.15 L 5.701 19.15 Q 3.777 19.15 2.64 17.939 L 2.64 17.939 L 2.64 17.939 Q 1.502 16.729 1.502 14.746 Z " fill="rgb(246,126,66)"/><path d=" M 11.141 18.848 L 9.705 18.848 L 9.705 18.848 Q 9.549 18.848 9.529 18.765 L 9.529 18.765 L 9.529 18.765 Q 9.51 18.682 9.549 18.652 L 9.549 18.652 L 13.563 13.506 L 9.549 8.35 L 9.549 8.35 Q 9.52 8.32 9.51 8.281 L 9.51 8.281 L 9.51 8.281 Q 9.51 8.145 9.705 8.145 L 9.705 8.145 L 11.141 8.145 L 11.141 8.145 Q 11.385 8.145 11.541 8.35 L 11.541 8.35 L 14.568 12.227 L 17.605 8.35 L 17.605 8.35 Q 17.762 8.154 18.006 8.145 L 18.006 8.145 L 19.441 8.145 L 19.441 8.145 Q 19.637 8.145 19.637 8.281 L 19.637 8.281 L 19.637 8.281 Q 19.637 8.32 19.607 8.35 L 19.607 8.35 L 15.564 13.506 L 19.607 18.652 L 19.607 18.652 Q 19.637 18.682 19.637 18.721 L 19.637 18.721 L 19.637 18.721 Q 19.637 18.848 19.441 18.848 L 19.441 18.848 L 18.006 18.848 L 18.006 18.848 Q 17.762 18.848 17.605 18.652 L 17.605 18.652 L 14.568 14.785 L 11.541 18.652 L 11.541 18.652 Q 11.385 18.848 11.141 18.848 L 11.141 18.848 Z " fill="rgb(237,6,134)"/><linearGradient id="_lgradient_0" x1="0" y1="0.5" x2="1" y2="0.5" gradientTransform="matrix(64.045,0,0,14.307,20.835,4.844)" gradientUnits="userSpaceOnUse"><stop offset="0%" stop-opacity="1" style="stop-color:rgb(15,220,25)"/><stop offset="98.26086956521739%" stop-opacity="1" style="stop-color:rgb(25,166,66)"/></linearGradient><path d=" M 20.857 18.652 L 20.857 18.652 L 26.16 5.449 L 26.16 5.449 Q 26.404 4.854 27.059 4.844 L 27.059 4.844 L 27.664 4.844 L 27.664 4.844 Q 28.328 4.844 28.563 5.449 L 28.563 5.449 L 33.865 18.652 L 33.865 18.652 Q 33.895 18.711 33.895 18.74 L 33.895 18.74 L 33.895 18.74 Q 33.895 18.848 33.699 18.848 L 33.699 18.848 L 32.264 18.848 L 32.264 18.848 Q 32.068 18.848 31.961 18.652 L 31.961 18.652 L 30.564 15.244 L 24.158 15.244 L 22.762 18.652 L 22.762 18.652 Q 22.664 18.848 22.459 18.848 L 22.459 18.848 L 21.023 18.848 L 21.023 18.848 Q 20.838 18.848 20.838 18.74 L 20.838 18.74 L 20.838 18.74 Q 20.828 18.711 20.857 18.652 L 20.857 18.652 L 20.857 18.652 L 20.857 18.652 L 20.857 18.652 Z  M 40.584 19.15 L 40.584 19.15 Q 38.445 19.15 37.063 17.7 L 37.063 17.7 L 37.063 17.7 Q 35.682 16.25 35.682 13.511 L 35.682 13.511 L 35.682 13.511 Q 35.682 10.771 37.103 9.312 L 37.103 9.312 L 37.103 9.312 Q 38.523 7.852 40.779 7.852 L 40.779 7.852 L 40.779 7.852 Q 41.541 7.852 42.293 7.998 L 42.293 7.998 L 42.293 7.998 Q 43.045 8.145 43.396 8.291 L 43.396 8.291 L 43.777 8.447 L 43.777 5.049 L 43.777 5.049 Q 43.777 4.854 43.982 4.844 L 43.982 4.844 L 45.379 4.844 L 45.379 4.844 Q 45.574 4.844 45.584 5.049 L 45.584 5.049 L 45.584 18.652 L 45.584 18.652 Q 45.584 18.848 45.379 18.848 L 45.379 18.848 L 44.285 18.848 L 44.285 18.848 Q 44.09 18.848 44.061 18.652 L 44.061 18.652 L 43.885 17.549 L 43.885 17.549 Q 43.768 17.715 43.382 18.052 L 43.382 18.052 L 43.382 18.052 Q 42.996 18.389 42.645 18.594 L 42.645 18.594 L 42.645 18.594 Q 41.736 19.15 40.584 19.15 L 40.584 19.15 L 40.584 19.15 L 40.584 19.15 L 40.584 19.15 L 40.584 19.15 Z  M 49.578 18.652 L 49.578 18.652 L 49.578 8.35 L 49.578 8.35 Q 49.578 8.145 49.773 8.145 L 49.773 8.145 L 50.877 8.145 L 50.877 8.145 Q 51.072 8.145 51.092 8.35 L 51.092 8.35 L 51.277 9.443 L 51.277 9.443 Q 51.336 9.385 51.438 9.277 L 51.438 9.277 L 51.438 9.277 Q 51.541 9.17 51.868 8.887 L 51.868 8.887 L 51.868 8.887 Q 52.195 8.604 52.557 8.398 L 52.557 8.398 L 52.557 8.398 Q 53.494 7.852 54.627 7.852 L 54.627 7.852 L 54.627 7.852 Q 55.76 7.852 56.639 8.398 L 56.639 8.398 L 56.639 8.398 Q 57.518 8.945 57.977 9.951 L 57.977 9.951 L 57.977 9.951 Q 58.26 9.531 58.67 9.121 L 58.67 9.121 L 58.67 9.121 Q 59.08 8.711 59.92 8.281 L 59.92 8.281 L 59.92 8.281 Q 60.76 7.852 61.678 7.852 L 61.678 7.852 L 61.678 7.852 Q 63.455 7.852 64.515 9.048 L 64.515 9.048 L 64.515 9.048 Q 65.574 10.244 65.574 12.451 L 65.574 12.451 L 65.574 18.652 L 65.574 18.652 Q 65.574 18.848 65.379 18.848 L 65.379 18.848 L 63.973 18.848 L 63.973 18.848 Q 63.777 18.848 63.777 18.652 L 63.777 18.652 L 63.777 12.451 L 63.777 12.451 Q 63.777 10.869 63.157 10.059 L 63.157 10.059 L 63.157 10.059 Q 62.537 9.248 61.658 9.248 L 61.658 9.248 L 61.658 9.248 Q 60.779 9.248 60.008 9.79 L 60.008 9.79 L 60.008 9.79 Q 59.236 10.332 58.855 10.811 L 58.855 10.811 L 58.855 10.811 Q 58.475 11.289 58.475 11.348 L 58.475 11.348 L 58.475 18.652 L 58.475 18.652 Q 58.475 18.848 58.279 18.848 L 58.279 18.848 L 56.873 18.848 L 56.873 18.848 Q 56.678 18.848 56.678 18.652 L 56.678 18.652 L 56.678 12.451 L 56.678 12.451 Q 56.678 10.869 56.058 10.059 L 56.058 10.059 L 56.058 10.059 Q 55.438 9.248 54.559 9.248 L 54.559 9.248 L 54.559 9.248 Q 53.68 9.248 52.908 9.79 L 52.908 9.79 L 52.908 9.79 Q 52.137 10.332 51.756 10.811 L 51.756 10.811 L 51.756 10.811 Q 51.375 11.289 51.375 11.348 L 51.375 11.348 L 51.375 18.652 L 51.375 18.652 Q 51.375 18.848 51.18 18.848 L 51.18 18.848 L 49.773 18.848 L 49.773 18.848 Q 49.578 18.848 49.578 18.652 L 49.578 18.652 L 49.578 18.652 L 49.578 18.652 Z  M 69.178 6.543 L 69.178 5.244 L 69.178 5.244 Q 69.178 4.844 69.578 4.844 L 69.578 4.844 L 70.877 4.844 L 70.877 4.844 Q 71.102 4.844 71.189 4.937 L 71.189 4.937 L 71.189 4.937 Q 71.277 5.029 71.277 5.244 L 71.277 5.244 L 71.277 6.543 L 71.277 6.543 Q 71.277 6.768 71.189 6.855 L 71.189 6.855 L 71.189 6.855 Q 71.102 6.943 70.877 6.943 L 70.877 6.943 L 69.578 6.943 L 69.578 6.943 Q 69.363 6.943 69.271 6.855 L 69.271 6.855 L 69.271 6.855 Q 69.178 6.768 69.178 6.543 L 69.178 6.543 L 69.178 6.543 L 69.178 6.543 Z  M 69.324 18.652 L 69.324 18.652 L 69.324 8.35 L 69.324 8.35 Q 69.324 8.145 69.52 8.145 L 69.52 8.145 L 70.916 8.145 L 70.916 8.145 Q 71.121 8.145 71.121 8.35 L 71.121 8.35 L 71.121 18.652 L 71.121 18.652 Q 71.121 18.848 70.916 18.848 L 70.916 18.848 L 69.52 18.848 L 69.52 18.848 Q 69.324 18.848 69.324 18.652 L 69.324 18.652 Z  M 75.086 18.652 L 75.086 18.652 L 75.086 8.35 L 75.086 8.35 Q 75.086 8.145 75.281 8.145 L 75.281 8.145 L 76.385 8.145 L 76.385 8.145 Q 76.58 8.145 76.6 8.35 L 76.6 8.35 L 76.785 9.443 L 76.785 9.443 Q 76.902 9.277 77.293 8.94 L 77.293 8.94 L 77.293 8.94 Q 77.684 8.604 78.055 8.398 L 78.055 8.398 L 78.055 8.398 Q 79.012 7.852 80.281 7.852 L 80.281 7.852 L 80.281 7.852 Q 82.303 7.852 83.592 9.102 L 83.592 9.102 L 83.592 9.102 Q 84.881 10.352 84.881 12.549 L 84.881 12.549 L 84.881 18.652 L 84.881 18.652 Q 84.881 18.848 84.686 18.848 L 84.686 18.848 L 83.279 18.848 L 83.279 18.848 Q 83.084 18.848 83.084 18.652 L 83.084 18.652 L 83.084 12.549 L 83.084 12.549 Q 83.084 10.967 82.264 10.107 L 82.264 10.107 L 82.264 10.107 Q 81.443 9.248 80.184 9.248 L 80.184 9.248 L 80.184 9.248 Q 79.607 9.248 79.046 9.468 L 79.046 9.468 L 79.046 9.468 Q 78.484 9.688 78.113 9.985 L 78.113 9.985 L 78.113 9.985 Q 77.742 10.283 77.459 10.596 L 77.459 10.596 L 77.459 10.596 Q 76.883 11.211 76.883 11.348 L 76.883 11.348 L 76.883 18.652 L 76.883 18.652 Q 76.883 18.848 76.688 18.848 L 76.688 18.848 L 75.281 18.848 L 75.281 18.848 Q 75.086 18.848 75.086 18.652 Z " fill-rule="evenodd" fill="url(#_lgradient_0)"/><path d=" M 27.361 7.148 L 24.666 13.848 L 30.066 13.848 L 27.361 7.148 Z " fill="rgb(255,255,255)"/><path d=" M 40.94 9.248 L 40.94 9.248 L 40.94 9.248 Q 39.402 9.248 38.44 10.308 L 38.44 10.308 L 38.44 10.308 Q 37.479 11.367 37.479 13.477 L 37.479 13.477 L 37.479 13.477 Q 37.479 15.586 38.357 16.665 L 38.357 16.665 L 38.357 16.665 Q 39.236 17.744 40.682 17.744 L 40.682 17.744 L 40.682 17.744 Q 42.049 17.744 43.23 16.396 L 43.23 16.396 L 43.23 16.396 Q 43.777 15.771 43.777 15.645 L 43.777 15.645 L 43.777 9.844 L 43.777 9.844 Q 42.479 9.248 40.94 9.248 Z " fill="rgb(255,255,255)"/></g></svg>